<svg width="523" height="399" xmlns="http://www.w3.org/2000/svg" xmlns:xlink="http://www.w3.org/1999/xlink"><defs><ellipse id="a" cx="6.755" cy="5.335" rx="3.941" ry="5.335"/><ellipse id="b" cx="5.348" cy="5.335" rx="2.139" ry="5.335"/><ellipse id="c" cx="5.348" cy="5.335" rx="2.139" ry="5.335"/><path d="M2.251 7.265C3.93.13 17.56.13 26.904.13c9.346 0 24.072 5.122 24.072 7.134 0 5.931 9.061 97.385 10.923 100.975 1.862 3.59 31.223 4.595 34.244 10.507 3.02 5.912-51.924 6.41-54.705 6.161-2.782-.249-28.798-3.676-33.992-6.16C2.25 116.262-2.874 99.871 2.25 7.264z" id="d"/><path d="M16.276.132c.77.51 1.296 1.409 1.577 2.699.423 1.935 5.615 39.263 5.615 41.15 0 1.886-.942 4.131-3.037 4.131-2.096 0-20.206.509-20.206 1.066 0 .458 21.58 1.13 39.9.458 4.518 0 4.091-4.226 3.107-6.752-.983-2.527-12.028-38.648-12.83-40.053-.804-1.406-1.109-2.699-1.955-2.699H16.276z" id="f"/><path d="M2.604 19.422c0 3.635 1.965 21.292.834 25.335C2.306 48.8.498 83.666.26 86.092.025 88.52.612 92.58 3.222 93.63c2.61 1.05 7.47 1.5 10.467 1.5 2.998 0 5.34.767 5.34-.734 0-1.5-11.054-4.189-11.054-11.108 0-6.92 9.296-33.812 10.219-39.708.615-3.931 1.496-17.618 2.645-41.06-10.665-2.972-16.465-2.972-17.401 0-1.405 4.458-.834 13.268-.834 16.903z" id="h"/><path d="M8.89 94.136c0-2.93 1.958-7.25 1.958-8.447v-7.126c0-3.858-10.475-30.594-10.475-48.986 0-6.543.927-10.436.927-14.912C1.3 11.68.991 8.082.373 3.87L19.189.22l-.735 6.683c.07 5.295-.35 9.455-1.26 12.481-1.363 4.54-1.258 52.016 0 55.321 1.26 3.306 4.117 11.254 4.117 14.415 0 .374 2.587 5.016.72 5.016-2.116 0-7.876 1.578-9.298 1.578-1.423 0-3.843 1.352-3.843-1.578z" id="j"/><path d="M12.38 58.592l-8.627-17.03c2.758-4.64 3.604-8.312 2.539-11.014-1.598-4.053-1.649-4.415-2.094-5.213-.445-.798-2.113.649-2.584-2.609-.471-3.257-2.297-5.435-.707-7.192 1.59-1.757 2.46-5.371 3.291-6.946.83-1.574 4.789-8.343 9.225-8.343 4.437 0 11.13 1.815 13.103 4.704 1.972 2.89 3.081 4.226 3.081 8.098v5.45c0 1.179-.62 5.848-1.837 6.838-1.218.99-2.787 7.383-4.838 9.266-.41.716-.41 2.081 0 4.098 2.487 5.332 3.267 9.251 2.34 11.757-1.392 3.758-5.17 12.517-7.713 11.98-1.695-.357-3.422-1.64-5.178-3.844z" id="l"/><path d="M.232 141.76c7.03 3.605 12.075 5.407 15.136 5.407 4.592 0 18.806-2.703 29.857-2.703 11.052 0 19.985 2.703 23.503 2.703 3.519 0 6.846-2.703 10.1-2.703 2.168 0 3.566-.901 4.191-2.703-5.432-28.581-8.148-45.053-8.148-49.417 0-4.364-3.47-14.228-10.408-29.592-2.282-6.466-2.852-10.459-1.711-11.98 1.711-2.282 3.484-9.424 4.58-12.55 1.097-3.127 1.396-4.922 1.396-8.344 0-3.422-.555-4.207 2.011-4.207 2.566 0 9.258 1.002 9.258 1.002s-.791-7.72-1.617-9.785c-.826-2.065-1.61-7.596-4.852-9.849S54.624.251 53.5.251c-1.124 0-4.89 1.782-5.812 2.885.469 2.132-.776 12.628-2.463 12.628-1.686 0-7.192-8.661-7.192-10.792 0-2.132-7.522-5.643-7.522-4.721 0 .921-14.33 6.492-19.056 8.51-4.727 2.02-6.068 26.133-4.031 24.753 2.036-1.38 12.303-5.267 13.246-4.421.943.846 1.654 6.84 1.71 9.128.058 2.29-.23 20.55-2.267 23.663-2.038 3.113-14.29 24.768-17.086 45.135C1.164 120.597.232 132.177.232 141.76z" id="n"/><path d="M0 69.098c0 1.64 8.126 2.52 15.86 3.385 7.735.865 17.754-3.385 24.17-3.385 6.418 0 7.492 0 13.339.82s12.693 1.64 16.258.82c3.566-.82 8.254-.998 8.254-2.639 2.194 0-6.176-33.653-7.032-38.787-.856-5.134-6.175-19.67-8.33-21.02-.67-1.126-1.746-3.876-3.23-8.252L16.74 2.282c-.491 1.52-1.64 3.898-3.447 7.13-2.71 4.85-9.255 15.594-11.3 27.69C-.054 49.2 0 64.76 0 69.099z" id="p"/><path d="M.677 4.04C1.257 2.056 3.762.298 7.431.298c3.67 0 7.014 1.017 7.014 1.017s1.318 10.602 1.318 11.096c0 .495-4.912-2.893-8.953-1.446-4.04 1.446-6.133 1.9-6.133 3.017s1.16 2.059.58 3.16c-.58 1.102 1.267 2.702 1.822 2.702.555 0-1.241 1.062-1.821 0C.678 18.783-.486 8.928.678 4.04z" id="r"/><path d="M48 60.47l2.201-1.43-30.909-44.77 3.516-11.385L3.383 16.028h13.532L48 60.47z" id="t"/><path d="M1.171 3.1C2.711 1.39 4.232.535 5.738.535c2.258 0 6.363 0 7.236 1.283.873 1.282 1.158 4.374 1.158 6.32 0 1.948 1.45 4.566 1.45 5.09 0 .523-2.538-3.676-7.206-1.577-4.667 2.1-5.35 3.721-6.487 4.615-.757.596-1.345.596-1.763 0C1.302 11.344 1.89 8.269 1.89 7.04c0-1.23-.239-2.543-.718-3.94z" id="u"/><path d="M34.582 45.638c-1.082 0-20.074.536-32.91.536-2.23 0-2.23 3.016 0 3.016 1.224 0 6.445.011 9.67.006 4.605-.006 4.877 4.091 0 4.091-4.11 0-8.189.029-9.67 1.26-2.23 1.853-.737 3.986 1.65 3.986h45.154c4.771 0 3.479-4.312 0-5.246-3.48-.933-4.79-3.014-4.79-5.063 0-2.05-8.023-2.586-9.104-2.586z" id="w"/><path d="M.495.331c.96 16.49 1.44 25.37 1.44 26.642 0 1.906 1.746 3.835 4.04 3.835h38.071c2.544 0 4.569-2.883 5.436-6.267.578-2.256 2.313-10.326 5.205-24.21H.495z" id="x"/></defs><g fill="none" fill-rule="evenodd"><path d="M318.985 31.662c122.589 41.222 88.623 67.812 157.308 132.843 68.685 65.03-23.087 125.086-40.303 161.122-16.978 35.538-132.28 28.537-193.3 28.537-61.021 0-127.874 36.637-185.4-6.844-57.528-43.48-76.373-79.46-33.212-230.101C67.24-33.422 196.396-9.56 318.985 31.662z" fill="#F0F9FC"/><path d="M13.176 53.092c29.842-16.144 57.37-22.278 82.586-18.4 25.215 3.876 47.21 13.487 65.986 28.83v270.15l-148.572 9.062V53.092z" fill="#FFF"/><path d="M90.455 28.537V353.42M8.088 201.286l203.523 5.597" stroke="#F4FBFD" stroke-width="8"/><path d="M292.251 279.172h6.02a2 2 0 0 1 1.993 2.158l-2.388 30.227a2 2 0 0 1-1.994 1.843h-1.408a2 2 0 0 1-1.995-1.853l-2.222-30.228a2 2 0 0 1 1.994-2.147z" fill="#13287E"/><path d="M244.1 325.227c-.594-1.63-.594-3.194 0-4.693 19.197-6.048 39.778-11.413 51.117-11.413 11.34 0 51.315 11.524 52.391 12.446.717.614.99 2.17.82 4.668h-2.323v-2.57c-24.391-6.472-41.354-9.708-50.888-9.708-14.3 0-48.607 8.825-48.607 8.825v2.445h-2.51z" fill="#13287E"/><path d="M291.57 314.213c2.807 1.607 4.258 12.407 4.258 14.458v2.912h2.671v-2.912c-1.581-9.414-1.428-14.352.46-14.815 1.888-.463.633-1.506-3.765-3.13-4.287 1.253-5.495 2.416-3.624 3.487zM244.333 335.316c.941 0 2.042.097 3.113-.107.297-.057.346-2.948.346-5.243 0-3.3.039-5.335-1.048-5.335h-2.892c-2.177 0-3.941 2.388-3.941 5.335 0 2.946 1.856 5.35 4.422 5.35z" fill="#13287E"/><g transform="translate(239.91 324.63)"><use fill="#4743CE" xlink:href="#a"/><use fill="#247FFB" xlink:href="#a"/></g><path d="M298 336.33c-.7.06-1.51.23-2.325.096-.227-.038-.515-2.915-.715-5.202-.288-3.286-.494-5.312.315-5.382l2.151-.189c1.62-.141 3.14 2.123 3.397 5.058.257 2.935-.915 5.451-2.823 5.618z" fill="#13287E"/><g transform="scale(-1 1) rotate(5 -3876.579 -3277.165)"><use fill="#4743CE" xlink:href="#b"/><use fill="#247FFB" xlink:href="#b"/></g><path d="M347.831 333.711c-.703 0-1.524.098-2.324-.106-.222-.057-.259-2.948-.259-5.244 0-3.299-.029-5.335.783-5.335h2.16c1.625 0 2.943 2.389 2.943 5.335s-1.387 5.35-3.303 5.35z" fill="#13287E"/><g transform="matrix(-1 0 0 1 351.15 323.026)"><use fill="#4743CE" xlink:href="#c"/><use fill="#247FFB" xlink:href="#c"/></g><path d="M324.229 269.802c-3.13 1.797-1.096 1.797 6.103 0 4.385-4.074 7.812-8.286 10.283-12.639 3.706-6.528 1.313-9.47 0-10.256-.875-.524-1.928-1-3.157-1.428 2.961 2.329 3.576 5.09 1.844 8.284-2.598 4.79-10.379 13.342-15.073 16.039z" fill="#13287E"/><path d="M311.04 242.27c1.39 16.58 2.697 25.411 3.917 26.494 1.831 1.625 7.47 1.515 8.794.898 1.324-.617 10.144-7.457 13.461-12.002 3.317-4.545 5.226-9.221 0-11.378-3.484-1.437-12.208-2.775-26.172-4.012z" stroke="#D9E8EC" stroke-width="3" stroke-linecap="round" stroke-linejoin="round"/><g transform="translate(253.281 156.354)"><mask id="e" fill="#fff"><use xlink:href="#d"/></mask><use fill="#4743CE" xlink:href="#d"/><use fill="#247FFB" xlink:href="#d"/><path d="M46.025 8.964c1.06 34.031 1.589 56.149 1.589 66.353 0 3.546 2.71 14.52-3.786 22.205-9.52 11.263-30.244 19.412-32.828 20.647-4.348 2.078 26.493-6.87 38.25-6.87 11.759 0 37.917 2.198 34 7.869-3.918 5.67-37.254 4.312-39.422 5.852-2.168 1.54 43.557 5.353 45.854 3.225 2.298-2.128 10.234-4.478 10.234-7.277 0-2.799-6.764-9.669-10.234-9.669-3.47 0-15.188-1.913-20.038-5.602s-5.227-17.406-7.443-26.96c-2.217-9.553-6.724-55.074-6.724-75.02C55.477-16.228 19.1-8.912 11 1.504c14.605 0 26.28 2.486 35.025 7.46z" fill="#0A56DF" mask="url(#e)"/></g><path d="M260.143 274.3c-2.112 1.109-.807 1.663 3.913 1.663 5.18-5.084 8.97-9.775 11.369-14.072 3.6-6.445 1.275-9.935 0-10.711-.85-.517-1.915-.991-3.193-1.422 3.384 2.65 4.235 5.553 2.553 8.707-2.524 4.73-11.475 14.172-14.642 15.835z" fill="#13287E"/><path d="M253.281 245.48c.504 13.722 1.316 22.013 2.438 24.873 1.683 4.29 3.38 4.962 5.035 4.342 1.654-.62 9.744-9.984 12.551-13.67 2.807-3.688 4.064-8.6-1.11-10.767-3.45-1.445-9.754-3.038-18.914-4.779z" stroke="#D9E8EC" stroke-width="2" stroke-linecap="round" stroke-linejoin="round"/><g><g transform="translate(265.544 261.325)" fill="#13287E"><rect transform="rotate(-6 6.614 57.495)" x="6.106" width="1.018" height="114.99" rx=".509"/><rect transform="rotate(-4 9.159 57.495)" x="8.65" width="1.018" height="114.99" rx=".509"/><rect transform="rotate(4 17.808 57.495)" x="17.299" width="1.018" height="114.99" rx=".509"/><rect transform="rotate(2 15.264 57.495)" x="14.755" width="1.018" height="114.99" rx=".509"/></g><g transform="translate(494.507 253.184)" fill="#13287E"><rect transform="rotate(-3 3.053 47.065)" x="2.544" width="1.018" height="94.129" rx=".509"/><rect transform="rotate(4 10.176 47.065)" x="9.667" width="1.018" height="94.129" rx=".509"/><rect transform="rotate(2 7.748 47.054)" x="7.239" y="-.011" width="1.018" height="94.129" rx=".509"/></g><g transform="translate(397.834 252.675)" fill="#13287E"><rect transform="rotate(-5 4.07 37.906)" x="3.562" y=".509" width="1.018" height="74.795" rx=".509"/><rect transform="rotate(3 10.097 37.881)" x="9.589" y=".484" width="1.018" height="74.795" rx=".509"/><path d="M4.722.507c.281-.01.518.21.53.49L8.328 74.73a.505.505 0 0 1-.487.526.512.512 0 0 1-.53-.49L4.235 1.032a.505.505 0 0 1 .487-.526z"/></g><g transform="translate(195.329 251.149)" fill="#13287E"><rect transform="rotate(-5 5.088 48.337)" x="4.579" width="1.018" height="96.673" rx=".509"/><rect transform="rotate(-2 7.632 48.845)" x="7.123" y=".509" width="1.018" height="96.673" rx=".509"/><rect transform="rotate(4 14.247 48.845)" x="13.738" y=".509" width="1.018" height="96.673" rx=".509"/><rect transform="rotate(2 11.703 48.845)" x="11.194" y=".509" width="1.018" height="96.673" rx=".509"/></g><path fill="#D2A57A" d="M181.82 250.956l88.998 9.331 251.786-8.035-97.13-5.964z"/><path fill="#9D7753" d="M270.123 259.798L523 251.658v7.632l-252.877 9.667z"/><path fill="#E5C2A0" d="M181.591 250.64l88.532 9.158v9.159l-88.532-10.176z"/></g><g><path d="M353.366 163.224l70.772 3.597a4 4 0 0 1 3.758 4.553l-8.759 62.18a4 4 0 0 1-3.907 3.441l-68.626.925a4 4 0 0 1-4.034-4.394l6.613-66.702a4 4 0 0 1 4.183-3.6z" fill="#D9E8EC"/><path d="M356.284 162.806l70.845 3.6a4 4 0 0 1 3.758 4.554l-8.762 62.203a4 4 0 0 1-3.882 3.441l-70.058 1.383a4 4 0 0 1-4.05-4.471l7.974-67.186a4 4 0 0 1 4.175-3.524z" fill="#FFF"/><g transform="translate(370.358 201.795)"><mask id="g" fill="#fff"><use xlink:href="#f"/></mask><use fill="#D9E8EC" xlink:href="#f"/><path d="M18.139.124L30.022-.25l15.252 34.336V49.17c-18.973 1.126-28.851 1.432-29.634.92-1.005-.66 25.667.135 25.667-4.137 0-2.848-4.41-17.368-13.23-43.56L18.139.124z" fill="#D0E1E5" mask="url(#g)"/></g></g><g><path d="M325.908 252.216c.768-2.904 11.932-3.078 16.362-.802 2.033 1.044 2.666 1.733-.732 1.733-.365 0-9.74-1.253-11.166-1.253-1.426 0-4.536.55-4.464.322z" fill="#FFF"/><path d="M326.021 252.969c.529.54 15.978.286 16.533.15.645-.402-2.695-1.676-6.272-2.121-3.577-.446-11.684-.428-10.26 1.97z" fill="#D9E8EC"/></g><g><path d="M280.662 252.951c4.637 0 7.419-.984 7.95-1.618.533-.635-3.422.293-8.058.293-4.637 0-8.331-.57-7.516 0 .816.57 2.987 1.325 7.624 1.325z" fill="#BDD0D5"/><path d="M280.554 252.338c4.636 0 8.395-.627 8.395-1.19 0-.561-3.759-.54-8.395-.54-4.637 0-8.395-.021-8.395.54 0 .563 3.758 1.19 8.395 1.19z" fill="#D9E8EC"/><path d="M273.167 241.19c-.663 1.503 1.104 8.919 2.946 9.549 1.843.63 8.186.351 8.58 0 .395-.351 2.683-1.385 3.424-9.55-1.106-.474-10.934 0-14.95 0z" fill="#FFF"/><path d="M273.43 242.843c-1.794-.436-2.69.146-2.69 1.748 0 1.601 1.574 3.12 4.724 4.555" stroke="#D9E8EC" stroke-width="2" stroke-linecap="round" stroke-linejoin="round"/></g><g><g transform="translate(116.705 108.018)"><g transform="translate(62.181 186.544)"><mask id="i" fill="#fff"><use xlink:href="#h"/></mask><use fill="#F4B1A1" xlink:href="#h"/><path d="M8.209 6.664c5.77-.631 8.656-.087 8.656 1.632 0 2.58-.452 29.968-1.35 34.209-.9 4.241-9.106 34.922-9.106 38.694 0 3.771 1.8 9.725 10.456 12.57 5.77 1.896 10.326-12.894 13.664-44.37l-3.25-41.103L16.865-2.16 8.21 6.664z" fill="#EB9C89" mask="url(#i)"/></g><g transform="translate(44.497 190.537)"><mask id="k" fill="#fff"><use xlink:href="#j"/></mask><use fill="#F4B1A1" xlink:href="#j"/><path d="M2.48 5.893c7.397-.696 11.336.352 11.816 3.146.721 4.19-1.268 18.127-1.268 27.755 0 9.627.108 36.924 3.055 41.086 2.947 4.162 2.947 9.856 2.947 11.088 0 1.232 1.447 2.663-7.258 4.757-5.803 1.396-2.901 2.114 8.705 2.155l3.842-6.912L19.03 66.23l1.447-51.93V-1.716L-.774.255 2.48 5.893z" fill="#EB9C89" mask="url(#k)"/></g><path d="M55.13 278.171c-.509 1.143-2.933 6.962-1.636 9.43 1.298 2.47 8.492 2.353 10.1 2.353 1.607 0 4.497-.929 4.497-3.253 0-2.325-.95-7.416-2.044-8.53-.447-.183 1.095 4.97-1.762 4.97s-7.46 1.746-9.156.709c-1.696-1.037.34-6.445 0-5.679z" fill="#13287E"/><path d="M66.833 280.303c.463 1.978.958 3.457 2.313 4.05 1.355.593 5.563 2.366 8.877 1.983 3.314-.384 6.36-.506 7.045-1.68.686-1.176-3.616-4.7-5.205-5.176-1.588-.476 1.519 1.144 0 1.454-1.518.31-7.268.586-8.818 0-1.55-.586-3.877-.933-4.212-.631z" fill="#13287E"/><g transform="translate(51.342 8.557)"><mask id="m" fill="#fff"><use xlink:href="#l"/></mask><use fill="#F4B1A1" xlink:href="#l"/><path d="M3.886 18.239c-.284.21-1.541-1.922-1.88-1.922-.337 0-1.032.909-1.032 1.301 0 .393 1.27 4.203 1.27 5.82 0 1.616 1.851.376 2.285 1.835.29.972.421 1.777.396 2.417C1.656 26.534.022 25.586.022 24.846c0-1.112-2.09-8.433-2.09-9.11 0-.45.697-1.979 2.09-4.586 2.766 4.586 4.054 6.948 3.864 7.089z" fill="#EB9C89" mask="url(#m)"/></g><circle fill="#13287E" cx="72.19" cy="25.502" r="1"/><circle fill="#13287E" cx="63.062" cy="25.502" r="1"/><path d="M69.82 21.07c.645.773 2.486.76 3.856.962 1.37.202-.766-1.097-1.448-1.268-.682-.17-3.052-.465-2.408.307zM64.936 21.07c-.644.773-2.486.76-3.856.962-1.37.202.766-1.097 1.448-1.268.682-.17 3.052-.465 2.408.307z" fill="#13287E"/><ellipse fill="#EB9C89" transform="rotate(29 74.541 30.235)" cx="74.541" cy="30.235" rx="1.521" ry="1.141"/><ellipse fill="#EB9C89" transform="rotate(-12 60.28 29.094)" cx="60.28" cy="29.094" rx="1.521" ry="1.141"/><path d="M67.986 40.139c1.26 0 2.656-1.93 2.656-2.711 0-.782-2.21 0-3.47 0-1.26 0-3.28-.63-3.28 0s2.834 2.71 4.094 2.71zM57.74 39.203c4.787 4.49 7.62 6.735 8.497 6.735h2.656c.583 0 5.643-2.833 5.643-3.367 0-.534-1.05 2.633 0 5.763s-1.05 14.828-1.44 15.382c-.39.553-6.114 6.442-5.537 4.057s3.975-10.732.515-15.325c-3.46-4.594-5.63-7.09-7.183-8.978a55.004 55.004 0 0 1-3.151-4.267z" fill="#EB9C89"/><g transform="translate(22.819 50.201)"><mask id="o" fill="#fff"><use xlink:href="#n"/></mask><use fill="#4743CE" xlink:href="#n"/><use fill="#247FFB" xlink:href="#n"/><path d="M63.56 15.835c.64 0 3.077 9.563 3.885 9.563 1.186.56 1.69-1.131 4.018-1.516.975-.161 4.006.344 9.094 1.516-7.157 10.53-11.528 17.294-13.112 20.29-1.584 2.995 1.313 16.039 8.69 39.13l12.445 47.105-3.793 15.982H69.821c4.748-3.145 8.327-4.717 10.736-4.717 3.613 0-2.032-9.22-2.84-11.265-.81-2.044-18.854-2.742-23.606-2.742-4.752 0-13.566 5.484-19.446 2.742-5.88-2.742-11.765 0-16.536 0-3.18 0-7.176-.914-11.987-2.742-2.353.324-3.53-.488-3.53-2.435 0-2.922 1.291-22.76 3.53-24.926 1.492-1.444 2.541-7.111 3.147-17.002l3.869-19.935 7.487-15.208v-13.01c0-1.571-14.503 1.025-14.503-2.395 0-1.28 1.047-4.818 3.147-7.209 1.416-1.611 9.696.539 10.758-.57 1.063-1.108-1.918-6.424-1.918-6.424s1.381 1.133 2.913 3.815c1.022 1.788 1.915 4.275 2.68 7.46.49 5.416 2.85 8.794 7.08 10.133 6.345 2.009 9.17-3.339 18.068 0 5.933 2.226 10.653 2.226 14.159 0 3.659-3.495 4.61-8.3 2.852-14.414-2.637-9.17-2.886-11.226-2.322-11.226zM54.074-.94l-6.757 3.695c-1.997 8.166-2.627 12.517-1.89 13.053.92.667 3.613-8.8 3.613-10.293 0-1.493 6.43-3.634 9.475-2.76C61.561 3.63 68.39 3.77 75.373 9.3c-1.33-1.872 3.768 4.292 3.866 4.381 1.137 1.034 1.362-2.607.677-10.925L54.074-.94z" fill="#0A56DF" mask="url(#o)"/></g><g transform="translate(26.242 107.248)"><mask id="q" fill="#fff"><use xlink:href="#p"/></mask><use fill="#FFF" xlink:href="#p"/><path d="M9.634 14.9c1.246 1.438 4.897-7.489 8.194-7.489 3.298 0 12.27 6.335 22.972 5.397 10.702-.938 11.612-2.788 17.172-2.788 4.158.85 13.148 21.93 13.148 27.59 0 3.774 2.008 13.755 6.025 29.943-7.093 2.851-13.062 4.011-17.908 3.48-7.269-.796 3.54 8.287 4.746 8.287 1.207 0 23.02 1.699 23.02 0 0-1.7 4.869-51.293 4.869-51.293L71.12 5.25 59.237-4.853 9.634.91c-1.369 7.747-1.369 12.41 0 13.99z" fill="#EFEFEF" mask="url(#q)"/></g><path d="M32.44 88.297c.337-1.764 4.687-2.352 6.882-2.352 1.463 0 3.339.784 5.627 2.352-.804 6.565-.511 9.847.88 9.847 4.99 1.653 27.123 5.627 31.002 5.627 3.878 0 12.04-9.998 12.04-11.567 0-1.568 4.71-8.161 5.588-8.161.842 0-.164 1.902 1.6 1.902 1.765 0 3.4-.946 4.593 0s-.29 5.902-2.687 6.726c-2.397.824-2.243 1.17-3.085 1.17-.561 0-1.577 1.434-3.047 4.303-2.91 9.557-10.815 14.687-23.718 15.391-19.353 1.056-22.063-1.799-24.007-1.799-1.944 0-7.219 1.287-8.573-4.173-1.355-5.461-4.76-10.559-3.096-19.266z" fill="#E9A291"/><g transform="translate(29.664 77.013)"><mask id="s" fill="#fff"><use xlink:href="#r"/></mask><use fill="#FFF" xlink:href="#r"/><path d="M8.023 7.784C6.388 5.204 5.57 3.664 5.57 3.166c0-.747.299-1.88 1.248-1.88C8.88.964 10.615.2 12.444 2.08c1.828 1.88 3.118 10.184 3.118 10.947 0 .764 1.918-.734 1.918-.734s-.74-8.686-.74-9.128c0-.294-1.432-2.256-4.296-5.885l-9.416.485-1.003 4.315 5.998 5.703z" fill="#EFEFEF" mask="url(#s)"/></g><g transform="translate(0 43.926)"><use fill="#4743CE" xlink:href="#t"/><use fill="#247FFB" xlink:href="#t"/></g><path fill="#13287E" d="M.781 58.735l2.815 1.322L23.05 47.204v-3.246zM50.24 102.975L36.238 82.719l-2.416 1.433 14.206 20.362z"/><path d="M91.234 87.715c0-1.779 8.048-3.716 9.608-3.201 1.56.515 3.533 1.529 3.533 2.154s1.243 17.682-1.375 19.282c-2.618 1.6-6.091 1.381-7.82 1.381-1.73 0-12.238 1.826-24.432-1.381-12.194-3.207-12.41-3.285-13.828-3.285-1.417 0-3.617-.144-4.501-1.432-.884-1.288-3.388-2.876-4.456-2.876-1.067 0-4.857 2.052-5.96 2.876-1.101.824-3.648 2.571-4.167 2.571-.519 0-3.413-2.687-2.885-4.111.528-1.425-.528-1.638 0-2.992s2.792-6.018 3.42-6.018c.628 0 7.117-.862 8.309-.862 1.192 0 8.178 5.344 9.418 5.931 1.24.588 13.78.95 16.428.95 2.647 0 18.837-2.493 19.92-2.858 1.084-.366-1.212-2.408-1.212-6.129z" fill="#F4B1A1"/><g transform="translate(89.564 74.161)"><mask id="v" fill="#fff"><use xlink:href="#u"/></mask><use fill="#FFF" xlink:href="#u"/><path d="M2.368 15.738c-2.029 0 .375-5.022.46-6.142.083-1.12 0-4.347 0-5.656 0-1.31 2.061-2 5.855-2.676 2.529-.45 4.243.32 5.143 2.314l-1.031-9.385L-.632 1.264v8.865c-2.22 6.053-2.46 8.399-.718 7.037 2.61-2.043 5.746-1.428 3.718-1.428z" fill="#EFEFEF" mask="url(#v)"/></g><path d="M88.87 92.204c0-1.568 4.71-8.161 5.59-8.161.841 0-.165 1.902 1.6 1.902 1.764 0 3.399-.946 4.592 0 1.193.946-.29 5.902-2.687 6.726-2.397.824-2.243 1.17-3.085 1.17-.561 0-3.017.348-7.367 1.046.905-.743 1.358-1.637 1.358-2.683z" fill="#E9A291"/><path d="M69.631 49.314c-.492.556.208 4.338.994 4.338.787 0 5.772-2.116 6.011-2.765.239-.649-1.273-4.616-1.932-4.616-.665.24 1.084 1.236-5.073 3.043zM60.834 54.553c.373.315 2.084-3.228 2.084-3.917 0-.689-7.441-2.011-7.782-2.821-.341-.81 1.657-1.579 1.657-1.579s-2.483.122-2.863 1.137c-.38 1.014-1.083 3.69-.768 4.07.315.38 3.631 1.794 7.672 3.11z" fill="#FFF"/><path d="M52.787 23.437c.891-.878 1.716 2.523 2.673 3.79.67-1.267-1.366-2.411 0-4.153 1.366-1.743 1.807-1.654 1.349-2.42-.459-.765-.586-1.886.322-3.452.908-1.566 3.513-3.685 6.061-3.685 2.549 0 .194-2.547.194-2.966 0-.418 3.747 2.388 3.74 2.388-.005 0 6.486.731 9.27 3.046 2.786 2.315 4.244 5.682 3.328 7.967-.915 2.286.864 4.35 1.092 5.142.129.446-.036-1.248.678-2.856.714-1.608.77-3.694.77-4.665 0-.971.677-7.283-4.334-10.837-5.01-3.555-8.039-5.446-10.797-4.687-2.76.759.09-2.43-7.54 2.047-7.632 4.476-7.947 15.341-6.806 15.341z" fill="#13287E"/><path d="M56.03 12.027c2.136-.741 2.136-1.754 0-3.04C52.829 7.06 60.94-.74 63.24.442c2.302 1.184-.035 2.368 8.22 1.184S75.4 5.467 75.4 8.987c0 3.52-2.416.815-7.683 0-5.267-.815-10.336 4.706-10.336 3.886 0-.547-.45-.829-1.351-.846z" fill="#13287E"/><path d="M69.032 8.15c1.096-.136 6.653.547 6.497.761.12.09-3.545-.054-6.002-.392-2.458-.338-11.491.518-11.812 1.805-.32 1.287.945 3.386-1.093 4.385-1.359.667-1.321-.263.113-2.79-3.113.909-4.288.79-3.526-.358.762-1.147 2.138-1.83 4.126-2.05 7.068-.818 10.967-1.271 11.697-1.362z" stroke="#247FFB" fill="#247FFB"/><path d="M67.638 22.438c.401-.94 1.01 3.77 1.408 5.271.344 1.291 1.67 2.01 1.123 3.266-1.475.583-2.974.583-3.396.3 0-1.961.45-3 .865-8.837z" fill="#EB9C89"/></g><g transform="translate(52.812 339.628)"><use fill="#FFF" xlink:href="#w"/><use fill="#F4FCFD" xlink:href="#w"/></g><g transform="translate(72.208 364.729)"><mask id="y" fill="#fff"><use xlink:href="#x"/></mask><use fill="#4743CE" xlink:href="#x"/><use fill="#247FFB" xlink:href="#x"/><path d="M5.88 2.478c26.303.833 35.795.752 40.172 2.236 4.838 1.64 3.14 13.9 0 22.782-1.284 3.63-8.762 2.066-12.797 3.32 16.1 4.57 24.141-5.358 24.124-29.786L4.339-.876C.374.394.888 1.512 5.88 2.478z" fill="#0A56DF" mask="url(#y)"/></g><path d="M97.716 365.133c-1.73-7.326-4.952-20.978-4.952-23.263 0-2.286 2.878-2.286 4.174-1.143.864.762 2.417 8.897 4.661 24.406-1.498 2.38-2.792 2.38-3.883 0z" fill="#13287E"/><path d="M70.636 366.877c15.6 0 57.11.235 58.553 0 1.214-.94-1.061-4.76-2.002-4.76H73.974c-3.338 0-3.338 4.76-3.338 4.76z" fill="#13287E"/></g><g transform="translate(253.386 59.014)"><circle fill="#D9E8EC" cx="24.624" cy="27.642" r="21.624"/><circle cx="24" cy="24" r="24" fill="#FFF"/><rect fill="#D9E8EC" x="22.843" y="12.632" width="1.018" height="16.282" rx=".509"/><rect fill="#D9E8EC" transform="rotate(58 27.473 26.027)" x="26.964" y="20.939" width="1.018" height="10.176" rx=".509"/></g></g></svg>