<svg width="110" height="69" xmlns="http://www.w3.org/2000/svg"><path d="M53.318 34.65c-.16-.122-.319-.247-.48-.369-.205.144-.395.346-.62.419-.55.18-1.118.3-1.68.443.019-.624-.035-1.262.08-1.865.073-.37.407-.688.624-1.027 2.306-3.605 4.721-7.143 6.872-10.84 1.205-2.076 1.929-4.667.402-6.736-1.582-2.142-4.284-2.198-6.646-1.542-3.692 1.02-7.433 2.08-10.902 3.686-10.415 4.817-19.763 11.311-28.144 19.282C6.802 41.828 2.324 48.335 1.1 56.875c-.854 5.958 2.887 9.195 7.836 9.747 8.35.93 15.506-2.318 22.169-6.911 7.374-5.083 13.153-11.807 18.236-19.189 1.341-1.946 2.653-3.914 3.977-5.874v.003zM84.34 22.949c-4.857 1.393-8.106 4.798-11.175 8.46l-.705-.33c.196-.718.222-1.562.624-2.127 1.203-1.686 2.596-3.229 3.822-4.896.441-.597.624-1.392.925-2.097-.211-.178-.418-.359-.629-.537-2.003 1.824-4.114 3.54-5.985 5.498-2.066 2.157-3.88 4.558-5.87 6.793-.463.517-1.196.784-1.807 1.166.098-.758-.042-1.682.335-2.243 2.167-3.214 4.47-6.333 6.699-9.502.526-.747.947-1.572 1.416-2.36l-.335-.463c-1.007.574-2.012 1.141-3.017 1.715-6.65 3.787-11.281 9.543-15.397 15.93C47.433 46.96 40.798 55.22 31.87 61.32c-5.308 3.629-10.996 6.211-17.313 7.201-3.2.5-6.403.222-9.353-1.256C1.023 65.168-.518 61.36.15 56.656c1.376-9.644 6.978-16.596 13.698-22.792 8.735-8.047 18.543-14.499 29.343-19.298 4.2-1.865 8.522-3.425 13.29-2.789 2.866.38 4.588 2.093 4.701 5.047.145 3.809-1.637 6.874-3.686 9.835-.7 1.014-1.365 2.054-2.046 3.08.164.142.33.286.496.426.698-.7 1.501-1.324 2.08-2.116 2.76-3.784 5.462-7.61 8.177-11.427.154-.215.415-.507.369-.696-.624-2.493 1.575-3.034 2.793-4.228 3.456-3.386 6.889-6.8 10.45-10.072.787-.724 1.517-2.32 3.119-1.289-.592.926-.999 2.093-1.806 2.74-6.501 5.211-11.771 11.557-16.556 18.363-.19.271-.402.527-.57.808-.103.17-.143.378-.395 1.096 1.483-.913 2.596-1.622 3.731-2.295 1.59-.947 3.162-1.94 4.815-2.762.577-.286 1.369-.12 2.063-.162-.038.688.03 1.401-.143 2.052-.191.724-.598 1.39-1.096 2.49 1.61-.939 2.753-1.712 3.982-2.299 2.152-1.027 2.76-.586 2.678 1.796-.01.329-.032.656-.053 1.115 1.716-.668 3.277-1.33 4.874-1.886 2.983-1.038 3.343-.76 3.081 2.741 1.587-1.108 2.939-2.034 4.274-2.986.926-.66 1.697-1.618 2.583.226.558 1.166 2.534.593 4.067-.963a914.762 914.762 0 0 1 8.988-9.006c.592-.582 1.331-1.007 2.004-1.506.18.119.364.237.545.355-.24.644-.345 1.394-.739 1.918-2.779 3.68-6.066 6.815-9.484 9.909-3.87 3.5-7.225 7.637-10.534 11.725-5.507 6.802-10.779 13.797-16.205 20.667-.438.557-1.292.77-1.954 1.143.108-.805.017-1.716.357-2.4 2.032-4.058 4.858-7.478 8.23-10.47 1.33-1.182 2.496-2.56 3.67-3.91.308-.355.361-.935.532-1.41-.47-.167-.954-.518-1.406-.475-4.633.426-9.256.982-13.892 1.36-2.972.24-5.962.275-8.945.316-.51.007-1.022-.417-2.102-.89 1.176-.403 1.753-.743 2.349-.786 8.232-.597 16.47-1.119 24.698-1.768.863-.068 1.902-.603 2.468-1.27 2.208-2.59 4.293-5.293 6.335-8.026.388-.52.37-1.36.539-2.051-.91-.21-1.927-.789-2.709-.55-1.29.393-2.378 1.418-3.637 1.985-3.37 1.519-3.494 1.411-3.23-2.323h-.002z" fill="#13287E" fill-rule="nonzero"/></svg>