<svg width="141" height="47" xmlns="http://www.w3.org/2000/svg" xmlns:xlink="http://www.w3.org/1999/xlink"><defs><path d="M42.13 9.174A27.458 27.458 0 0 0 39.03 9c-4.894 0-9.562 1.28-13.499 3.7a.733.733 0 0 0 .38 1.357c.13 0 .261-.035.38-.108 3.708-2.28 8.113-3.486 12.74-3.486 1.442 0 2.863.117 4.252.35a23.437 23.437 0 0 1 1.834 3.457 23.51 23.51 0 0 0-4.622-.497c-4.03-.023-7.95.947-11.322 2.834a.732.732 0 0 0 .355 1.37c.12 0 .242-.03.354-.092 3.101-1.736 6.699-2.65 10.414-2.65h.186c1.808.018 3.573.247 5.268.685a23.33 23.33 0 0 1 .856 3.278 19.797 19.797 0 0 0-4.642-.652 20.11 20.11 0 0 0-9.136 1.963.733.733 0 0 0 .316 1.392.725.725 0 0 0 .314-.072 18.671 18.671 0 0 1 8.473-1.818c1.701.038 3.35.3 4.913.776a23.75 23.75 0 0 1 .152 3.08 16.656 16.656 0 0 0-3.556-.547 18.06 18.06 0 0 0-6.927 1.083.731.731 0 0 0 .497 1.374 16.623 16.623 0 0 1 6.364-.996c1.234.058 2.426.255 3.552.586a23.484 23.484 0 0 1-.423 2.958c-1.923-.392-4.054-.407-6.246-.034a.731.731 0 0 0 .242 1.443c1.997-.338 3.926-.33 5.66.015C43.424 39.694 34.315 47 23.5 47 10.521 47 0 36.479 0 23.5S10.521 0 23.5 0c7.586 0 14.333 3.595 18.63 9.174zM18.938 36.956a.724.724 0 0 0 1.029 0l6.19-6.22 5.23.368 1.904 1.913c.39.393.903.589 1.416.589.512 0 1.026-.196 1.417-.589l1.32-1.326a2.02 2.02 0 0 0 0-2.845l-7.841-7.877a.725.725 0 0 0-1.03 0 .734.734 0 0 0 0 1.035l7.84 7.878a.55.55 0 0 1 0 .776l-1.32 1.326a.557.557 0 0 1-.772 0l-2.098-2.107-8.964-9.01-2.098-2.108a.55.55 0 0 1 0-.777l1.32-1.326a.557.557 0 0 1 .772 0l2.097 2.107a.725.725 0 0 0 1.03 0 .734.734 0 0 0 0-1.034l-2.098-2.106a1.986 1.986 0 0 0-1.416-.59c-.534 0-1.038.208-1.416.588l-1.32 1.326a2.02 2.02 0 0 0 0 2.845l1.904 1.913.366 5.257-3.956 3.98-2.23 2.242a.734.734 0 0 0 0 1.035l2.724 2.737zm.02-4.46l.848.851a.724.724 0 0 0 1.03 0 .734.734 0 0 0 0-1.034l-.848-.852 3.679-3.696a.736.736 0 0 0 .211-.569l-.271-3.91 6.212 6.242-3.892-.273a.72.72 0 0 0-.566.213l-5.909 5.937-1.695-1.703 1.202-1.206z" id="a"/></defs><g fill="none" fill-rule="evenodd"><path d="M68.3 34.27c-2.22 0-4.155-.455-5.805-1.365a9.371 9.371 0 0 1-3.81-3.855c-.89-1.66-1.335-3.58-1.335-5.76 0-2.16.445-4.065 1.335-5.715a9.394 9.394 0 0 1 3.81-3.84c1.65-.91 3.585-1.365 5.805-1.365 1.4 0 2.755.21 4.065.63 1.31.42 2.365.99 3.165 1.71l-1.71 3.99c-1.74-1.26-3.54-1.89-5.4-1.89-1.72 0-3.04.545-3.96 1.635-.92 1.09-1.38 2.705-1.38 4.845 0 2.16.46 3.79 1.38 4.89.92 1.1 2.24 1.65 3.96 1.65 1.86 0 3.66-.63 5.4-1.89l1.71 3.99c-.8.72-1.855 1.29-3.165 1.71-1.31.42-2.665.63-4.065.63zm9.87-.27V11.92h5.43V34h-5.43zm24.72-15.24V34h-5.34v-2.07c-.44.72-1.08 1.285-1.92 1.695-.84.41-1.76.615-2.76.615-1.3 0-2.46-.32-3.48-.96-1.02-.64-1.815-1.555-2.385-2.745-.57-1.19-.855-2.565-.855-4.125 0-1.58.29-2.98.87-4.2.58-1.22 1.38-2.17 2.4-2.85 1.02-.68 2.17-1.02 3.45-1.02 1 0 1.915.215 2.745.645.83.43 1.475 1.005 1.935 1.725v-1.95h5.34zm-8.34 11.43c.96 0 1.7-.33 2.22-.99.52-.66.78-1.61.78-2.85 0-1.26-.26-2.225-.78-2.895-.52-.67-1.26-1.005-2.22-1.005-.94 0-1.68.345-2.22 1.035-.54.69-.81 1.665-.81 2.925 0 1.22.26 2.155.78 2.805.52.65 1.27.975 2.25.975zm21.78-11.85c1.8 0 3.145.545 4.035 1.635.89 1.09 1.335 2.735 1.335 4.935V34h-5.43v-8.85c0-.94-.16-1.615-.48-2.025-.32-.41-.82-.615-1.5-.615-.82 0-1.48.275-1.98.825-.5.55-.75 1.275-.75 2.175V34h-5.43V23.14c0-1.64-.08-3.1-.24-4.38h5.1l.27 2.25c.58-.86 1.3-1.52 2.16-1.98.86-.46 1.83-.69 2.91-.69zm24.27.42l-6.99 15.78c-.92 2.06-2.075 3.565-3.465 4.515-1.39.95-3.105 1.545-5.145 1.785l-1.26-4.14c1.4-.28 2.45-.64 3.15-1.08.7-.44 1.23-1.05 1.59-1.83l.39-.84-6.21-14.19h5.64l3.42 8.79 3.54-8.79h5.34z" fill="#FFF"/><use fill="#FFF" xlink:href="#a"/></g></svg>