<svg width="141" height="47" xmlns="http://www.w3.org/2000/svg" xmlns:xlink="http://www.w3.org/1999/xlink"><defs><circle id="a" cx="23.5" cy="23.5" r="23.5"/><path d="M18.938 36.956a.724.724 0 0 0 1.029 0l6.19-6.22 5.23.368 1.904 1.913a1.994 1.994 0 0 0 2.833 0l1.32-1.326a2.02 2.02 0 0 0 0-2.845l-7.841-7.877a.725.725 0 0 0-1.03 0 .734.734 0 0 0 0 1.035l7.84 7.878a.55.55 0 0 1 0 .776l-1.32 1.326a.557.557 0 0 1-.772 0l-2.098-2.107-8.964-9.01-2.098-2.108a.55.55 0 0 1 0-.777l1.32-1.326a.557.557 0 0 1 .772 0l2.097 2.107a.725.725 0 0 0 1.03 0 .734.734 0 0 0 0-1.034l-2.098-2.106a1.986 1.986 0 0 0-1.416-.59c-.534 0-1.038.208-1.416.588l-1.32 1.326a2.02 2.02 0 0 0 0 2.845l1.904 1.913.366 5.257-3.956 3.98-2.23 2.242a.734.734 0 0 0 0 1.035l2.724 2.737zm.02-4.46l.848.851a.724.724 0 0 0 1.03 0 .734.734 0 0 0 0-1.034l-.848-.852 3.679-3.696a.736.736 0 0 0 .211-.569l-.271-3.91 6.212 6.242-3.892-.273a.72.72 0 0 0-.566.213l-5.909 5.937-1.695-1.703 1.202-1.206zm6.954-18.44a.733.733 0 0 1-.38-1.356c3.937-2.42 8.605-3.7 13.5-3.7 3.073 0 6.056.504 8.866 1.497a.732.732 0 0 1-.483 1.38 25.09 25.09 0 0 0-8.384-1.414c-4.626 0-9.031 1.206-12.74 3.486a.722.722 0 0 1-.38.108zm21.986.988c.38.133.58.55.448.932a.727.727 0 0 1-.927.45 21.569 21.569 0 0 0-6.936-1.19c-.06-.002-.123-.002-.186-.002-3.715 0-7.313.915-10.414 2.65a.725.725 0 0 1-.99-.282.732.732 0 0 1 .28-.995c3.373-1.887 7.292-2.857 11.323-2.834a23.01 23.01 0 0 1 7.402 1.271zm0 4.548a.731.731 0 0 1-.472 1.383 18.11 18.11 0 0 0-5.494-.964 18.671 18.671 0 0 0-8.473 1.818.725.725 0 0 1-.971-.344.733.733 0 0 1 .341-.976 20.11 20.11 0 0 1 9.136-1.963c2.064.047 4.06.4 5.933 1.046zm-.003 4.546a.731.731 0 0 1 .46.926.725.725 0 0 1-.922.462 14.91 14.91 0 0 0-4.058-.745 16.623 16.623 0 0 0-6.364.996.726.726 0 0 1-.933-.437.731.731 0 0 1 .436-.937 18.06 18.06 0 0 1 6.927-1.083c1.555.073 3.054.347 4.454.818zm-.007 4.546a.736.736 0 0 1 .475.92.728.728 0 0 1-.914.476c-2.04-.65-4.442-.77-6.949-.346a.731.731 0 1 1-.242-1.443c2.733-.465 5.37-.328 7.63.393z" id="c"/></defs><g fill="none" fill-rule="evenodd"><path d="M68.3 34.27c-2.22 0-4.155-.455-5.805-1.365a9.371 9.371 0 0 1-3.81-3.855c-.89-1.66-1.335-3.58-1.335-5.76 0-2.16.445-4.065 1.335-5.715a9.394 9.394 0 0 1 3.81-3.84c1.65-.91 3.585-1.365 5.805-1.365 1.4 0 2.755.21 4.065.63 1.31.42 2.365.99 3.165 1.71l-1.71 3.99c-1.74-1.26-3.54-1.89-5.4-1.89-1.72 0-3.04.545-3.96 1.635-.92 1.09-1.38 2.705-1.38 4.845 0 2.16.46 3.79 1.38 4.89.92 1.1 2.24 1.65 3.96 1.65 1.86 0 3.66-.63 5.4-1.89l1.71 3.99c-.8.72-1.855 1.29-3.165 1.71-1.31.42-2.665.63-4.065.63zm9.87-.27V11.92h5.43V34h-5.43zm24.72-15.24V34h-5.34v-2.07c-.44.72-1.08 1.285-1.92 1.695-.84.41-1.76.615-2.76.615-1.3 0-2.46-.32-3.48-.96-1.02-.64-1.815-1.555-2.385-2.745-.57-1.19-.855-2.565-.855-4.125 0-1.58.29-2.98.87-4.2.58-1.22 1.38-2.17 2.4-2.85 1.02-.68 2.17-1.02 3.45-1.02 1 0 1.915.215 2.745.645.83.43 1.475 1.005 1.935 1.725v-1.95h5.34zm-8.34 11.43c.96 0 1.7-.33 2.22-.99.52-.66.78-1.61.78-2.85 0-1.26-.26-2.225-.78-2.895-.52-.67-1.26-1.005-2.22-1.005-.94 0-1.68.345-2.22 1.035-.54.69-.81 1.665-.81 2.925 0 1.22.26 2.155.78 2.805.52.65 1.27.975 2.25.975zm21.78-11.85c1.8 0 3.145.545 4.035 1.635.89 1.09 1.335 2.735 1.335 4.935V34h-5.43v-8.85c0-.94-.16-1.615-.48-2.025-.32-.41-.82-.615-1.5-.615-.82 0-1.48.275-1.98.825-.5.55-.75 1.275-.75 2.175V34h-5.43V23.14c0-1.64-.08-3.1-.24-4.38h5.1l.27 2.25c.58-.86 1.3-1.52 2.16-1.98.86-.46 1.83-.69 2.91-.69zm24.27.42l-6.99 15.78c-.92 2.06-2.075 3.565-3.465 4.515-1.39.95-3.105 1.545-5.145 1.785l-1.26-4.14c1.4-.28 2.45-.64 3.15-1.08.7-.44 1.23-1.05 1.59-1.83l.39-.84-6.21-14.19h5.64l3.42 8.79 3.54-8.79h5.34z" fill="#13287E"/><mask id="b" fill="#fff"><use xlink:href="#a"/></mask><use fill="#FFF" xlink:href="#a"/><use fill="#F4FBFD" xlink:href="#a"/><use fill="#FFF323" xlink:href="#a"/><g mask="url(#b)"><use fill="#4743CE" xlink:href="#c"/><use fill="#247FFB" xlink:href="#c"/><use fill="#13287E" xlink:href="#c"/></g></g></svg>